<svg width="45" height="46" viewBox="0 0 45 46" fill="none" xmlns="http://www.w3.org/2000/svg">
<path d="M23.125 20.875H29.125" stroke="#AC835E" stroke-width="2"/>
<path d="M10.125 16.875H34.125" stroke="#AC835E" stroke-width="2"/>
<path d="M29.125 23.875V13.875C29.125 12.218 27.782 10.875 26.125 10.875C24.468 10.875 23.125 12.218 23.125 13.875M23.125 23.875V13.875C23.125 12.218 21.782 10.875 20.125 10.875C18.468 10.875 17.125 12.218 17.125 13.875" stroke="#AC835E" stroke-width="2"/>
<path d="M10.1367 35.3516C9.41272 35.3516 8.68872 35.1016 8.13672 34.6016C7.58472 34.1016 6.86072 33.8516 6.13672 33.8516C5.41272 33.8516 4.68872 34.1016 4.13672 34.6016C3.58472 35.1016 2.86072 35.3516 2.13672 35.3516C1.41272 35.3516 0.688717 35.1016 0.136717 34.6016C-0.415283 34.1016 -1.13928 33.8516 -1.86328 33.8516C-2.58728 33.8516 -3.31128 34.1016 -3.86328 34.6016C-4.41528 35.1016 -5.13928 35.3516 -5.86328 35.3516C-6.58728 35.3516 -7.31128 35.1016 -7.86328 34.6016C-8.41528 34.1016 -9.13928 33.8516 -9.86328 33.8516C-10.5873 33.8516 -11.3113 34.1016 -11.8633 34.6016C-12.4153 35.1016 -13.1393 35.3516 -13.8633 35.3516M58.1247 35.3656C57.4007 35.3656 56.6767 35.1156 56.1247 34.6156C55.5727 34.1156 54.8487 33.8656 54.1247 33.8656C53.4007 33.8656 52.6767 34.1156 52.1247 34.6156C51.5727 35.1156 50.8487 35.3656 50.1247 35.3656C49.4007 35.3656 48.6767 35.1156 48.1247 34.6156C47.5727 34.1156 46.8487 33.8656 46.1247 33.8656C45.4007 33.8656 44.6767 34.1156 44.1247 34.6156C43.5727 35.1156 42.8487 35.3656 42.1247 35.3656C41.4007 35.3656 40.6767 35.1156 40.1247 34.6156C39.5727 34.1156 38.8487 33.8656 38.1247 33.8656C37.4007 33.8656 36.6767 34.1156 36.1247 34.6156C35.5727 35.1156 34.8487 35.3656 34.1247 35.3656M34.1257 35.3746C33.4017 35.3746 32.6777 35.1246 32.1257 34.6246C31.5737 34.1246 30.8497 33.8746 30.1257 33.8746C29.4017 33.8746 28.6777 34.1246 28.1257 34.6246C27.5737 35.1246 26.8497 35.3746 26.1257 35.3746C25.4017 35.3746 24.6777 35.1246 24.1257 34.6246C23.5737 34.1246 22.8497 33.8746 22.1257 33.8746C21.4017 33.8746 20.6777 34.1246 20.1257 34.6246C19.5737 35.1246 18.8497 35.3746 18.1257 35.3746C17.4017 35.3746 16.6777 35.1246 16.1257 34.6246C15.5737 34.1246 14.8497 33.8746 14.1257 33.8746C13.4017 33.8746 12.6777 34.1246 12.1257 34.6246C11.5737 35.1246 10.8497 35.3746 10.1257 35.3746" stroke="#AC835E" stroke-width="2"/>
<path d="M10.1367 30.3516C9.41272 30.3516 8.68872 30.1016 8.13672 29.6016C7.58472 29.1016 6.86072 28.8516 6.13672 28.8516C5.41272 28.8516 4.68872 29.1016 4.13672 29.6016C3.58472 30.1016 2.86072 30.3516 2.13672 30.3516C1.41272 30.3516 0.688717 30.1016 0.136717 29.6016C-0.415283 29.1016 -1.13928 28.8516 -1.86328 28.8516C-2.58728 28.8516 -3.31128 29.1016 -3.86328 29.6016C-4.41528 30.1016 -5.13928 30.3516 -5.86328 30.3516C-6.58728 30.3516 -7.31128 30.1016 -7.86328 29.6016C-8.41528 29.1016 -9.13928 28.8516 -9.86328 28.8516C-10.5873 28.8516 -11.3113 29.1016 -11.8633 29.6016C-12.4153 30.1016 -13.1393 30.3516 -13.8633 30.3516M58.1247 30.3656C57.4007 30.3656 56.6767 30.1156 56.1247 29.6156C55.5727 29.1156 54.8487 28.8656 54.1247 28.8656C53.4007 28.8656 52.6767 29.1156 52.1247 29.6156C51.5727 30.1156 50.8487 30.3656 50.1247 30.3656C49.4007 30.3656 48.6767 30.1156 48.1247 29.6156C47.5727 29.1156 46.8487 28.8656 46.1247 28.8656C45.4007 28.8656 44.6767 29.1156 44.1247 29.6156C43.5727 30.1156 42.8487 30.3656 42.1247 30.3656C41.4007 30.3656 40.6767 30.1156 40.1247 29.6156C39.5727 29.1156 38.8487 28.8656 38.1247 28.8656C37.4007 28.8656 36.6767 29.1156 36.1247 29.6156C35.5727 30.1156 34.8487 30.3656 34.1247 30.3656M34.1257 30.3746C33.4017 30.3746 32.6777 30.1246 32.1257 29.6246C31.5737 29.1246 30.8497 28.8746 30.1257 28.8746C29.4017 28.8746 28.6777 29.1246 28.1257 29.6246C27.5737 30.1246 26.8497 30.3746 26.1257 30.3746C25.4017 30.3746 24.6777 30.1246 24.1257 29.6246C23.5737 29.1246 22.8497 28.8746 22.1257 28.8746C21.4017 28.8746 20.6777 29.1246 20.1257 29.6246C19.5737 30.1246 18.8497 30.3746 18.1257 30.3746C17.4017 30.3746 16.6777 30.1246 16.1257 29.6246C15.5737 29.1246 14.8497 28.8746 14.1257 28.8746C13.4017 28.8746 12.6777 29.1246 12.1257 29.6246C11.5737 30.1246 10.8497 30.3746 10.1257 30.3746" stroke="#AC835E" stroke-width="2"/>
<path d="M10.1367 25.3516C9.41272 25.3516 8.68872 25.1016 8.13672 24.6016C7.58472 24.1016 6.86072 23.8516 6.13672 23.8516C5.41272 23.8516 4.68872 24.1016 4.13672 24.6016C3.58472 25.1016 2.86072 25.3516 2.13672 25.3516C1.41272 25.3516 0.688717 25.1016 0.136717 24.6016C-0.415283 24.1016 -1.13928 23.8516 -1.86328 23.8516C-2.58728 23.8516 -3.31128 24.1016 -3.86328 24.6016C-4.41528 25.1016 -5.13928 25.3516 -5.86328 25.3516C-6.58728 25.3516 -7.31128 25.1016 -7.86328 24.6016C-8.41528 24.1016 -9.13928 23.8516 -9.86328 23.8516C-10.5873 23.8516 -11.3113 24.1016 -11.8633 24.6016C-12.4153 25.1016 -13.1393 25.3516 -13.8633 25.3516M58.1247 25.3656C57.4007 25.3656 56.6767 25.1156 56.1247 24.6156C55.5727 24.1156 54.8487 23.8656 54.1247 23.8656C53.4007 23.8656 52.6767 24.1156 52.1247 24.6156C51.5727 25.1156 50.8487 25.3656 50.1247 25.3656C49.4007 25.3656 48.6767 25.1156 48.1247 24.6156C47.5727 24.1156 46.8487 23.8656 46.1247 23.8656C45.4007 23.8656 44.6767 24.1156 44.1247 24.6156C43.5727 25.1156 42.8487 25.3656 42.1247 25.3656C41.4007 25.3656 40.6767 25.1156 40.1247 24.6156C39.5727 24.1156 38.8487 23.8656 38.1247 23.8656C37.4007 23.8656 36.6767 24.1156 36.1247 24.6156C35.5727 25.1156 34.8487 25.3656 34.1247 25.3656M34.1257 25.3746C33.4017 25.3746 32.6777 25.1246 32.1257 24.6246C31.5737 24.1246 30.8497 23.8746 30.1257 23.8746C29.4017 23.8746 28.6777 24.1246 28.1257 24.6246C27.5737 25.1246 26.8497 25.3746 26.1257 25.3746C25.4017 25.3746 24.6777 25.1246 24.1257 24.6246C23.5737 24.1246 22.8497 23.8746 22.1257 23.8746C21.4017 23.8746 20.6777 24.1246 20.1257 24.6246C19.5737 25.1246 18.8497 25.3746 18.1257 25.3746C17.4017 25.3746 16.6777 25.1246 16.1257 24.6246C15.5737 24.1246 14.8497 23.8746 14.1257 23.8746C13.4017 23.8746 12.6777 24.1246 12.1257 24.6246C11.5737 25.1246 10.8497 25.3746 10.1257 25.3746" stroke="#AC835E" stroke-width="2"/>
</svg>
