<svg width="45" height="45" viewBox="0 0 45 45" fill="none" xmlns="http://www.w3.org/2000/svg">
<path d="M23.125 20.375H29.125" stroke="#AC835E" stroke-width="2"/>
<path d="M10.125 16.375H34.125" stroke="#AC835E" stroke-width="2"/>
<path d="M29.125 23.375V13.375C29.125 11.718 27.782 10.375 26.125 10.375C24.468 10.375 23.125 11.718 23.125 13.375M23.125 23.375V13.375C23.125 11.718 21.782 10.375 20.125 10.375C18.468 10.375 17.125 11.718 17.125 13.375" stroke="#AC835E" stroke-width="2"/>
<path d="M10.1367 34.8516C9.41272 34.8516 8.68872 34.6016 8.13672 34.1016C7.58472 33.6016 6.86072 33.3516 6.13672 33.3516C5.41272 33.3516 4.68872 33.6016 4.13672 34.1016C3.58472 34.6016 2.86072 34.8516 2.13672 34.8516C1.41272 34.8516 0.688717 34.6016 0.136717 34.1016C-0.415283 33.6016 -1.13928 33.3516 -1.86328 33.3516C-2.58728 33.3516 -3.31128 33.6016 -3.86328 34.1016C-4.41528 34.6016 -5.13928 34.8516 -5.86328 34.8516C-6.58728 34.8516 -7.31128 34.6016 -7.86328 34.1016C-8.41528 33.6016 -9.13928 33.3516 -9.86328 33.3516C-10.5873 33.3516 -11.3113 33.6016 -11.8633 34.1016C-12.4153 34.6016 -13.1393 34.8516 -13.8633 34.8516M58.1247 34.8656C57.4007 34.8656 56.6767 34.6156 56.1247 34.1156C55.5727 33.6156 54.8487 33.3656 54.1247 33.3656C53.4007 33.3656 52.6767 33.6156 52.1247 34.1156C51.5727 34.6156 50.8487 34.8656 50.1247 34.8656C49.4007 34.8656 48.6767 34.6156 48.1247 34.1156C47.5727 33.6156 46.8487 33.3656 46.1247 33.3656C45.4007 33.3656 44.6767 33.6156 44.1247 34.1156C43.5727 34.6156 42.8487 34.8656 42.1247 34.8656C41.4007 34.8656 40.6767 34.6156 40.1247 34.1156C39.5727 33.6156 38.8487 33.3656 38.1247 33.3656C37.4007 33.3656 36.6767 33.6156 36.1247 34.1156C35.5727 34.6156 34.8487 34.8656 34.1247 34.8656M34.1257 34.8746C33.4017 34.8746 32.6777 34.6246 32.1257 34.1246C31.5737 33.6246 30.8497 33.3746 30.1257 33.3746C29.4017 33.3746 28.6777 33.6246 28.1257 34.1246C27.5737 34.6246 26.8497 34.8746 26.1257 34.8746C25.4017 34.8746 24.6777 34.6246 24.1257 34.1246C23.5737 33.6246 22.8497 33.3746 22.1257 33.3746C21.4017 33.3746 20.6777 33.6246 20.1257 34.1246C19.5737 34.6246 18.8497 34.8746 18.1257 34.8746C17.4017 34.8746 16.6777 34.6246 16.1257 34.1246C15.5737 33.6246 14.8497 33.3746 14.1257 33.3746C13.4017 33.3746 12.6777 33.6246 12.1257 34.1246C11.5737 34.6246 10.8497 34.8746 10.1257 34.8746" stroke="#AC835E" stroke-width="2"/>
<path d="M10.1367 29.8516C9.41272 29.8516 8.68872 29.6016 8.13672 29.1016C7.58472 28.6016 6.86072 28.3516 6.13672 28.3516C5.41272 28.3516 4.68872 28.6016 4.13672 29.1016C3.58472 29.6016 2.86072 29.8516 2.13672 29.8516C1.41272 29.8516 0.688717 29.6016 0.136717 29.1016C-0.415283 28.6016 -1.13928 28.3516 -1.86328 28.3516C-2.58728 28.3516 -3.31128 28.6016 -3.86328 29.1016C-4.41528 29.6016 -5.13928 29.8516 -5.86328 29.8516C-6.58728 29.8516 -7.31128 29.6016 -7.86328 29.1016C-8.41528 28.6016 -9.13928 28.3516 -9.86328 28.3516C-10.5873 28.3516 -11.3113 28.6016 -11.8633 29.1016C-12.4153 29.6016 -13.1393 29.8516 -13.8633 29.8516M58.1247 29.8656C57.4007 29.8656 56.6767 29.6156 56.1247 29.1156C55.5727 28.6156 54.8487 28.3656 54.1247 28.3656C53.4007 28.3656 52.6767 28.6156 52.1247 29.1156C51.5727 29.6156 50.8487 29.8656 50.1247 29.8656C49.4007 29.8656 48.6767 29.6156 48.1247 29.1156C47.5727 28.6156 46.8487 28.3656 46.1247 28.3656C45.4007 28.3656 44.6767 28.6156 44.1247 29.1156C43.5727 29.6156 42.8487 29.8656 42.1247 29.8656C41.4007 29.8656 40.6767 29.6156 40.1247 29.1156C39.5727 28.6156 38.8487 28.3656 38.1247 28.3656C37.4007 28.3656 36.6767 28.6156 36.1247 29.1156C35.5727 29.6156 34.8487 29.8656 34.1247 29.8656M34.1257 29.8746C33.4017 29.8746 32.6777 29.6246 32.1257 29.1246C31.5737 28.6246 30.8497 28.3746 30.1257 28.3746C29.4017 28.3746 28.6777 28.6246 28.1257 29.1246C27.5737 29.6246 26.8497 29.8746 26.1257 29.8746C25.4017 29.8746 24.6777 29.6246 24.1257 29.1246C23.5737 28.6246 22.8497 28.3746 22.1257 28.3746C21.4017 28.3746 20.6777 28.6246 20.1257 29.1246C19.5737 29.6246 18.8497 29.8746 18.1257 29.8746C17.4017 29.8746 16.6777 29.6246 16.1257 29.1246C15.5737 28.6246 14.8497 28.3746 14.1257 28.3746C13.4017 28.3746 12.6777 28.6246 12.1257 29.1246C11.5737 29.6246 10.8497 29.8746 10.1257 29.8746" stroke="#AC835E" stroke-width="2"/>
<path d="M10.1367 24.8516C9.41272 24.8516 8.68872 24.6016 8.13672 24.1016C7.58472 23.6016 6.86072 23.3516 6.13672 23.3516C5.41272 23.3516 4.68872 23.6016 4.13672 24.1016C3.58472 24.6016 2.86072 24.8516 2.13672 24.8516C1.41272 24.8516 0.688717 24.6016 0.136717 24.1016C-0.415283 23.6016 -1.13928 23.3516 -1.86328 23.3516C-2.58728 23.3516 -3.31128 23.6016 -3.86328 24.1016C-4.41528 24.6016 -5.13928 24.8516 -5.86328 24.8516C-6.58728 24.8516 -7.31128 24.6016 -7.86328 24.1016C-8.41528 23.6016 -9.13928 23.3516 -9.86328 23.3516C-10.5873 23.3516 -11.3113 23.6016 -11.8633 24.1016C-12.4153 24.6016 -13.1393 24.8516 -13.8633 24.8516M58.1247 24.8656C57.4007 24.8656 56.6767 24.6156 56.1247 24.1156C55.5727 23.6156 54.8487 23.3656 54.1247 23.3656C53.4007 23.3656 52.6767 23.6156 52.1247 24.1156C51.5727 24.6156 50.8487 24.8656 50.1247 24.8656C49.4007 24.8656 48.6767 24.6156 48.1247 24.1156C47.5727 23.6156 46.8487 23.3656 46.1247 23.3656C45.4007 23.3656 44.6767 23.6156 44.1247 24.1156C43.5727 24.6156 42.8487 24.8656 42.1247 24.8656C41.4007 24.8656 40.6767 24.6156 40.1247 24.1156C39.5727 23.6156 38.8487 23.3656 38.1247 23.3656C37.4007 23.3656 36.6767 23.6156 36.1247 24.1156C35.5727 24.6156 34.8487 24.8656 34.1247 24.8656M34.1257 24.8746C33.4017 24.8746 32.6777 24.6246 32.1257 24.1246C31.5737 23.6246 30.8497 23.3746 30.1257 23.3746C29.4017 23.3746 28.6777 23.6246 28.1257 24.1246C27.5737 24.6246 26.8497 24.8746 26.1257 24.8746C25.4017 24.8746 24.6777 24.6246 24.1257 24.1246C23.5737 23.6246 22.8497 23.3746 22.1257 23.3746C21.4017 23.3746 20.6777 23.6246 20.1257 24.1246C19.5737 24.6246 18.8497 24.8746 18.1257 24.8746C17.4017 24.8746 16.6777 24.6246 16.1257 24.1246C15.5737 23.6246 14.8497 23.3746 14.1257 23.3746C13.4017 23.3746 12.6777 23.6246 12.1257 24.1246C11.5737 24.6246 10.8497 24.8746 10.1257 24.8746" stroke="#AC835E" stroke-width="2"/>
</svg>
